<svg xmlns="http://www.w3.org/2000/svg" xmlns:v="https://svgstorm.com"
viewBox = "0 0 28 27"
width="28"
height="27">
<g fill="None" fill-opacity="0.0" stroke="#000000" stroke-opacity="0.00" stroke-width="0.3"><path d="
M 0.00 27.00 
L 18.00 27.00
C 23.18 12.88 0.45 14.69 5.00 0.00
L 0.00 0.00
L 0.00 27.00 Z"/>
</g>
<g fill="None" fill-opacity="0.0" stroke="#3B987D" stroke-opacity="0.80" stroke-width="0.3"><path d="
M 18.00 27.00 
L 22.00 27.00
C 24.20 17.30 25.39 2.16 13.00 0.00
L 5.00 0.00
C 0.45 14.69 23.18 12.88 18.00 27.00
M 18.00 11.00 
C 14.68 10.30 11.22 8.26 10.00 5.00
C 13.20 5.51 17.68 7.10 18.00 11.00 Z"/>
</g>
<g fill="None" fill-opacity="0.0" stroke="#000000" stroke-opacity="0.00" stroke-width="0.3"><path d="
M 22.00 27.00 
L 28.00 27.00
L 28.00 0.00
L 13.00 0.00
C 25.39 2.16 24.20 17.30 22.00 27.00 Z"/>
</g>
<g fill="None" fill-opacity="0.0" stroke="#000000" stroke-opacity="0.00" stroke-width="0.3"><path d="
M 18.00 11.00 
C 17.68 7.10 13.20 5.51 10.00 5.00
C 11.22 8.26 14.68 10.30 18.00 11.00 Z"/>
</g>
<g fill="#000000" fill-opacity="0.00" stroke="None">
<path d="
M 0.00 27.00 
L 18.00 27.00
C 23.18 12.88 0.45 14.69 5.00 0.00
L 0.00 0.00
L 0.00 27.00 Z"/>
</g>
<g fill="#3B987D" fill-opacity="0.80" stroke="None">
<path d="
M 18.00 27.00 
L 22.00 27.00
C 24.20 17.30 25.39 2.16 13.00 0.00
L 5.00 0.00
C 0.45 14.69 23.18 12.88 18.00 27.00
M 18.00 11.00 
C 14.68 10.30 11.22 8.26 10.00 5.00
C 13.20 5.51 17.68 7.10 18.00 11.00 Z"/>
</g>
<g fill="#000000" fill-opacity="0.00" stroke="None">
<path d="
M 22.00 27.00 
L 28.00 27.00
L 28.00 0.00
L 13.00 0.00
C 25.39 2.16 24.20 17.30 22.00 27.00 Z"/>
</g>
<g fill="#000000" fill-opacity="0.00" stroke="None">
<path d="
M 18.00 11.00 
C 17.68 7.10 13.20 5.51 10.00 5.00
C 11.22 8.26 14.68 10.30 18.00 11.00 Z"/>
</g>
</svg>