<svg width="20" height="20" viewBox="0 0 20 20" fill="none" xmlns="http://www.w3.org/2000/svg">
<rect width="20" height="20" fill="#1E1E1E"/>
<g id="Desktop - 1">
<rect width="1440" height="1024" transform="translate(-46 -175)" fill="white"/>
<g id="Side Bar Content">
<g id="Frame 19">
<g id="Dashboard">
<g id="radix-icons:dashboard">
<path id="Vector" fill-rule="evenodd" clip-rule="evenodd" d="M3.08935 0.78595H3.01633C2.68187 0.78595 2.39415 0.78595 2.14003 0.84583C1.74662 0.939835 1.38692 1.14092 1.10078 1.4268C0.814637 1.71269 0.613229 2.07221 0.518869 2.46553C0.460449 2.71966 0.460449 3.00591 0.460449 3.34183V6.99309C0.460449 7.32754 0.460449 7.61526 0.52033 7.86939C0.614335 8.26279 0.815419 8.62249 1.1013 8.90864C1.38719 9.19478 1.74671 9.39618 2.14003 9.49054C2.39415 9.54896 2.68041 9.54896 3.01633 9.54896H6.66758C7.00204 9.54896 7.28976 9.54896 7.54389 9.48908C7.93729 9.39508 8.29699 9.19399 8.58313 8.90811C8.86928 8.62223 9.07068 8.26271 9.16504 7.86939C9.22346 7.61526 9.22346 7.329 9.22346 6.99309V3.34183C9.22346 3.00737 9.22346 2.71966 9.16358 2.46553C9.06958 2.07212 8.86849 1.71242 8.58261 1.42628C8.29673 1.14014 7.93721 0.938729 7.54389 0.84437C7.28976 0.78595 7.0035 0.78595 6.66758 0.78595H3.08935ZM2.48032 2.2669C2.54313 2.25229 2.64098 2.24645 3.08935 2.24645H6.59456C7.04439 2.24645 7.14079 2.25083 7.20359 2.2669C7.33479 2.29827 7.45473 2.36537 7.55011 2.46076C7.6455 2.55615 7.7126 2.67609 7.74397 2.80729C7.75858 2.86863 7.76296 2.96502 7.76296 3.41485V6.92006C7.76296 7.36989 7.75858 7.46629 7.74251 7.52909C7.71114 7.66029 7.64404 7.78023 7.54865 7.87561C7.45327 7.971 7.33333 8.0381 7.20213 8.06948C7.14225 8.08262 7.04585 8.08846 6.59456 8.08846H3.08935C2.63952 8.08846 2.54313 8.08408 2.48032 8.06802C2.34913 8.03664 2.22918 7.96954 2.1338 7.87415C2.03841 7.77877 1.97131 7.65883 1.93994 7.52763C1.92679 7.46775 1.92095 7.37136 1.92095 6.92006V3.41485C1.92095 2.96502 1.92533 2.86863 1.9414 2.80582C1.97277 2.67463 2.03987 2.55469 2.13526 2.4593C2.23064 2.36391 2.35059 2.29681 2.48178 2.26544L2.48032 2.2669ZM13.3129 0.78595H13.2398C12.9054 0.78595 12.6177 0.78595 12.3635 0.84583C11.9701 0.939835 11.6104 1.14092 11.3243 1.4268C11.0382 1.71269 10.8367 2.07221 10.7424 2.46553C10.684 2.71966 10.684 3.00591 10.684 3.34183V6.99309C10.684 7.32754 10.684 7.61526 10.7438 7.86939C10.8379 8.26279 11.0389 8.62249 11.3248 8.90864C11.6107 9.19478 11.9702 9.39618 12.3635 9.49054C12.6177 9.54896 12.9039 9.54896 13.2398 9.54896H16.8911C17.2256 9.54896 17.5133 9.54896 17.7674 9.48908C18.1608 9.39508 18.5205 9.19399 18.8067 8.90811C19.0928 8.62223 19.2942 8.26271 19.3886 7.86939C19.447 7.61526 19.447 7.329 19.447 6.99309V3.34183C19.447 3.00737 19.447 2.71966 19.3871 2.46553C19.2931 2.07212 19.092 1.71242 18.8061 1.42628C18.5202 1.14014 18.1607 0.938729 17.7674 0.84437C17.5133 0.78595 17.227 0.78595 16.8911 0.78595H13.3129ZM12.7038 2.2669C12.7666 2.25229 12.8645 2.24645 13.3129 2.24645H16.8181C17.2679 2.24645 17.3643 2.25083 17.4271 2.2669C17.5583 2.29827 17.6782 2.36537 17.7736 2.46076C17.869 2.55615 17.9361 2.67609 17.9675 2.80729C17.9821 2.86863 17.9865 2.96502 17.9865 3.41485V6.92006C17.9865 7.36989 17.9806 7.46629 17.966 7.52909C17.9347 7.66029 17.8676 7.78023 17.7722 7.87561C17.6768 7.971 17.5568 8.0381 17.4256 8.06948C17.3643 8.08408 17.2679 8.08846 16.8181 8.08846H13.3129C12.863 8.08846 12.7666 8.08408 12.7038 8.06802C12.5726 8.03664 12.4527 7.96954 12.3573 7.87415C12.2619 7.77877 12.1948 7.65883 12.1635 7.52763C12.1503 7.46775 12.1445 7.37136 12.1445 6.92006V3.41485C12.1445 2.96502 12.1488 2.86863 12.1649 2.80582C12.1963 2.67463 12.2634 2.55469 12.3588 2.4593C12.4542 2.36391 12.5741 2.29681 12.7053 2.26544L12.7038 2.2669ZM3.01633 11.0095H6.66758C7.00204 11.0095 7.28976 11.0095 7.54389 11.0693C7.93729 11.1634 8.29699 11.3644 8.58313 11.6503C8.86928 11.9362 9.07068 12.2957 9.16504 12.689C9.22346 12.9432 9.22346 13.2294 9.22346 13.5653V17.2166C9.22346 17.5511 9.22346 17.8388 9.16358 18.0929C9.06958 18.4863 8.86849 18.846 8.58261 19.1322C8.29673 19.4183 7.93721 19.6197 7.54389 19.7141C7.28976 19.7725 7.0035 19.7725 6.66758 19.7725H3.01633C2.68187 19.7725 2.39415 19.7725 2.14003 19.7126C1.74662 19.6186 1.38692 19.4175 1.10078 19.1316C0.814637 18.8457 0.613229 18.4862 0.518869 18.0929C0.460449 17.8388 0.460449 17.5525 0.460449 17.2166V13.5653C0.460449 13.2309 0.460449 12.9432 0.52033 12.689C0.614335 12.2956 0.815419 11.9359 1.1013 11.6498C1.38719 11.3637 1.74671 11.1622 2.14003 11.0679C2.39415 11.0095 2.68041 11.0095 3.01633 11.0095ZM3.08935 12.47C2.63952 12.47 2.54313 12.4744 2.48032 12.4904C2.34913 12.5218 2.22918 12.5889 2.1338 12.6843C2.03841 12.7797 1.97131 12.8996 1.93994 13.0308C1.92679 13.0907 1.92095 13.1871 1.92095 13.6384V17.1436C1.92095 17.5934 1.92533 17.6898 1.9414 17.7526C1.97277 17.8838 2.03987 18.0037 2.13526 18.0991C2.23064 18.1945 2.35059 18.2616 2.48178 18.293C2.54313 18.3076 2.63952 18.312 3.08935 18.312H6.59456C7.04439 18.312 7.14079 18.3061 7.20359 18.2915C7.33479 18.2602 7.45473 18.1931 7.55011 18.0977C7.6455 18.0023 7.7126 17.8823 7.74397 17.7511C7.75858 17.6898 7.76296 17.5934 7.76296 17.1436V13.6384C7.76296 13.1885 7.75858 13.0921 7.74251 13.0293C7.71114 12.8981 7.64404 12.7782 7.54865 12.6828C7.45327 12.5874 7.33333 12.5203 7.20213 12.489C7.14225 12.4758 7.04585 12.47 6.59456 12.47H3.08935ZM13.3129 11.0095H13.2398C12.9054 11.0095 12.6177 11.0095 12.3635 11.0693C11.9701 11.1634 11.6104 11.3644 11.3243 11.6503C11.0382 11.9362 10.8367 12.2957 10.7424 12.689C10.684 12.9432 10.684 13.2294 10.684 13.5653V17.2166C10.684 17.5511 10.684 17.8388 10.7438 18.0929C10.8379 18.4863 11.0389 18.846 11.3248 19.1322C11.6107 19.4183 11.9702 19.6197 12.3635 19.7141C12.6177 19.7739 12.9054 19.7739 13.2398 19.7739H16.8911C17.2256 19.7739 17.5133 19.7739 17.7674 19.7141C18.1605 19.6198 18.5199 19.4186 18.8058 19.1328C19.0917 18.8469 19.2929 18.4875 19.3871 18.0944C19.447 17.8402 19.447 17.5525 19.447 17.2181V13.5653C19.447 13.2309 19.447 12.9432 19.3871 12.689C19.2931 12.2956 19.092 11.9359 18.8061 11.6498C18.5202 11.3637 18.1607 11.1622 17.7674 11.0679C17.5133 11.0095 17.227 11.0095 16.8911 11.0095H13.3129ZM12.7038 12.4904C12.7666 12.4758 12.8645 12.47 13.3129 12.47H16.8181C17.2679 12.47 17.3643 12.4744 17.4271 12.4904C17.5583 12.5218 17.6782 12.5889 17.7736 12.6843C17.869 12.7797 17.9361 12.8996 17.9675 13.0308C17.9821 13.0921 17.9865 13.1885 17.9865 13.6384V17.1436C17.9865 17.5934 17.9806 17.6898 17.966 17.7526C17.9347 17.8838 17.8676 18.0037 17.7722 18.0991C17.6768 18.1945 17.5568 18.2616 17.4256 18.293C17.3643 18.3076 17.2679 18.312 16.8181 18.312H13.3129C12.863 18.312 12.7666 18.3061 12.7038 18.2915C12.5726 18.2602 12.4527 18.1931 12.3573 18.0977C12.2619 18.0023 12.1948 17.8823 12.1635 17.7511C12.1503 17.6913 12.1445 17.5949 12.1445 17.1436V13.6384C12.1445 13.1885 12.1488 13.0921 12.1649 13.0293C12.1963 12.8981 12.2634 12.7782 12.3588 12.6828C12.4542 12.5874 12.5741 12.5203 12.7053 12.489L12.7038 12.4904Z" fill="black"/>
</g>
</g>
</g>
</g>
</g>
</svg>
