<svg width="25" height="25" viewBox="0 0 25 25" fill="none" xmlns="http://www.w3.org/2000/svg">
<g clip-path="url(#clip0_11_200)">
<path d="M15.3599 18.4578V19.2028C15.3599 19.9932 15.0459 20.7511 14.487 21.31C13.9282 21.8689 13.1702 22.1829 12.3798 22.1829C11.5895 22.1829 10.8315 21.8689 10.2726 21.31C9.71372 20.7511 9.39975 19.9932 9.39975 19.2028V18.4578M20.3739 16.9412C19.1781 15.4777 18.3339 14.7327 18.3339 10.698C18.3339 7.00313 16.4471 5.68678 14.8943 5.04746C14.688 4.96271 14.4938 4.76808 14.4309 4.55621C14.1585 3.62913 13.3949 2.81241 12.3798 2.81241C11.3647 2.81241 10.6006 3.6296 10.331 4.55715C10.2682 4.77134 10.074 4.96271 9.86771 5.04746C8.31296 5.68771 6.42806 6.99941 6.42806 10.698C6.42573 14.7327 5.58154 15.4777 4.38578 16.9412C3.89035 17.5475 4.32432 18.4578 5.19087 18.4578H19.5734C20.4353 18.4578 20.8665 17.5447 20.3739 16.9412Z" stroke="black" stroke-width="1.49003" stroke-linecap="round" stroke-linejoin="round"/>
<circle cx="19.4676" cy="5.40991" r="4.42983" fill="#D34645" stroke="white" stroke-width="0.805424"/>
<path d="M19.318 7.26069C19.1392 7.26069 18.9725 7.22445 18.8178 7.15196C18.6648 7.07786 18.5335 6.97638 18.424 6.84751C18.3145 6.71703 18.2363 6.56722 18.1896 6.39808L18.6753 6.2676C18.7027 6.3707 18.7494 6.4601 18.8154 6.53581C18.8831 6.61152 18.962 6.67031 19.0522 6.7122C19.1424 6.75247 19.2359 6.7726 19.3325 6.7726C19.4598 6.7726 19.5749 6.742 19.678 6.68078C19.7827 6.61957 19.8649 6.53742 19.9245 6.43432C19.9857 6.33123 20.0163 6.21767 20.0163 6.09363C20.0163 5.96637 19.9849 5.8512 19.9221 5.7481C19.8609 5.64501 19.7779 5.56366 19.6732 5.50406C19.5701 5.44285 19.4565 5.41224 19.3325 5.41224C19.1908 5.41224 19.0707 5.44043 18.9725 5.49681C18.8742 5.55319 18.7977 5.61843 18.7429 5.69253L18.3032 5.53789L18.4095 3.70877H20.2869V4.18478H18.668L18.8734 3.99389L18.7888 5.36392L18.6898 5.23585C18.7816 5.14404 18.8911 5.07396 19.0184 5.02564C19.1456 4.97731 19.2721 4.95315 19.3977 4.95315C19.6136 4.95315 19.8061 5.00309 19.9752 5.10296C20.146 5.20283 20.2805 5.33895 20.3788 5.51131C20.477 5.68206 20.5261 5.87617 20.5261 6.09363C20.5261 6.30948 20.4706 6.50601 20.3594 6.6832C20.2483 6.85878 20.1009 6.99893 19.9172 7.10363C19.7336 7.20834 19.5339 7.26069 19.318 7.26069Z" fill="white"/>
</g>
<defs>
<clipPath id="clip0_11_200">
<rect width="23.8406" height="23.8406" fill="white" transform="translate(0.459473 0.577362)"/>
</clipPath>
</defs>
</svg>
