<svg width="22" height="22" viewBox="0 0 22 22" fill="none" xmlns="http://www.w3.org/2000/svg">
<path d="M8.21535 15.5179H13.6922M15.5179 19.1691H6.38972C5.42135 19.1691 4.49264 18.7844 3.80789 18.0997C3.12315 17.4149 2.73846 16.4862 2.73846 15.5179V9.77443C2.73845 9.14661 2.90032 8.52939 3.20844 7.98238C3.51656 7.43538 3.96053 6.97706 4.49746 6.65169L9.06153 3.88586C9.63214 3.54009 10.2866 3.35727 10.9538 3.35727C11.621 3.35727 12.2754 3.54009 12.8461 3.88586L17.4101 6.65169C17.9469 6.97698 18.3908 7.43515 18.6989 7.98199C19.007 8.52882 19.169 9.14585 19.1691 9.77351V15.5179C19.1691 16.4862 18.7844 17.4149 18.0997 18.0997C17.4149 18.7844 16.4862 19.1691 15.5179 19.1691Z" stroke="#488671" stroke-width="1.36922" stroke-linecap="round" stroke-linejoin="round"/>
</svg>
