<svg width="22" height="20" viewBox="0 0 22 20" fill="none" xmlns="http://www.w3.org/2000/svg">
<path d="M16.7282 6.44711C16.4485 6.22728 16.0434 6.27585 15.8236 6.5556L15.8218 6.55789L15.815 6.56647L15.7867 6.60191C15.7616 6.63339 15.7239 6.68019 15.675 6.74011C15.5771 6.86 15.4344 7.03218 15.257 7.23918C14.9014 7.65401 14.4096 8.20475 13.861 8.75334C13.3096 9.30476 12.7154 9.83927 12.155 10.2315C11.567 10.6431 11.1244 10.8198 10.8533 10.8198C10.5763 10.8198 10.1116 10.6383 9.4891 10.2233C8.89625 9.82804 8.26071 9.29062 7.66851 8.73791C7.07908 8.18777 6.54661 7.63571 6.16066 7.22007C5.96803 7.01263 5.81271 6.84004 5.70598 6.7198C5.65262 6.65971 5.61146 6.61274 5.58389 6.58111L5.55292 6.54544L5.54543 6.53675L5.54374 6.53478C5.31214 6.26466 4.90506 6.23298 4.63489 6.46455C4.36471 6.69614 4.33342 7.10291 4.56501 7.3731L5.05422 6.95377C4.56501 7.3731 4.56493 7.37301 4.56501 7.3731L4.56612 7.3744L4.56864 7.37733L4.57782 7.38798L4.61234 7.42774C4.64235 7.46217 4.68613 7.51211 4.74226 7.57534C4.8545 7.70177 5.01631 7.88156 5.21633 8.09696C5.61567 8.52702 6.17052 9.10255 6.78923 9.68C7.40517 10.2549 8.09857 10.8451 8.77427 11.2955C9.42028 11.7262 10.1638 12.1085 10.8533 12.1085C11.5486 12.1085 12.2739 11.7213 12.894 11.2873C13.5418 10.8338 14.196 10.2407 14.7722 9.66457C15.3512 9.08557 15.8661 8.50872 16.2354 8.07785C16.4205 7.862 16.5698 7.68181 16.6733 7.55504C16.725 7.49163 16.7654 7.44153 16.793 7.40694L16.8249 7.36695L16.8334 7.35619L16.8364 7.35232C16.8365 7.35223 16.8368 7.35186 16.3302 6.95377L16.8364 7.35232C17.0563 7.07251 17.0081 6.66697 16.7282 6.44711Z" fill="black"/>
<path fill-rule="evenodd" clip-rule="evenodd" d="M0.22168 7.59811C0.22168 3.68366 3.39497 0.510376 7.30941 0.510376H14.3971C18.3116 0.510376 21.4849 3.68366 21.4849 7.59811V12.7528C21.4849 16.6673 18.3116 19.8406 14.3971 19.8406H7.30941C3.39497 19.8406 0.22168 16.6673 0.22168 12.7528V7.59811ZM7.30941 1.79905H14.3971C17.5999 1.79905 20.1962 4.39538 20.1962 7.59811V12.7528C20.1962 15.9556 17.5999 18.5519 14.3971 18.5519H7.30941C4.10668 18.5519 1.51036 15.9556 1.51036 12.7528V7.59811C1.51036 4.39538 4.10668 1.79905 7.30941 1.79905Z" fill="black"/>
</svg>
